<?xml version="1.0" standalone="no"?>
<!DOCTYPE svg PUBLIC "-//W3C//DTD SVG 20010904//EN"
 "http://www.w3.org/TR/2001/REC-SVG-20010904/DTD/svg10.dtd">
<svg version="1.0" xmlns="http://www.w3.org/2000/svg"
 width="500.000000pt" height="500.000000pt" viewBox="0 0 500.000000 500.000000"
 preserveAspectRatio="xMidYMid meet">

<g transform="translate(0.000000,500.000000) scale(0.100000,-0.100000)"
fill="#000000" stroke="none">
<path d="M0 2500 l0 -2500 2500 0 2500 0 0 2500 0 2500 -2500 0 -2500 0 0
-2500z m4700 0 l0 -2200 -2200 0 -2200 0 0 2200 0 2200 2200 0 2200 0 0 -2200z"/>
<path d="M350 3960 l0 -690 325 0 325 0 0 -40 c0 -38 -1 -40 -32 -40 -55 0
-107 -20 -124 -46 -26 -39 -10 -93 169 -544 90 -228 179 -454 197 -502 18 -49
35 -88 39 -88 3 0 70 167 149 371 l143 371 -41 117 c-51 141 -102 251 -129
275 -27 24 -88 45 -133 46 -38 0 -38 1 -38 40 l0 40 335 0 335 0 0 -40 c0 -39
-1 -40 -33 -40 -54 0 -135 -28 -148 -52 -6 -11 -9 -37 -6 -57 2 -20 62 -185
132 -366 71 -182 156 -411 190 -510 35 -99 66 -179 71 -178 5 1 63 156 129
345 l120 343 -1 176 c-1 152 -4 182 -20 215 -26 53 -68 74 -159 81 l-75 6 0
38 0 39 690 0 690 0 0 -100 c0 -55 3 -100 6 -100 3 0 24 16 46 35 63 53 189
114 296 142 82 21 120 26 242 26 154 1 211 -9 338 -58 98 -39 134 -30 171 43
9 17 20 22 51 22 l40 0 0 -295 0 -295 -45 0 c-41 0 -45 2 -51 28 -30 139 -75
233 -145 307 -88 94 -197 135 -354 135 -294 0 -481 -170 -552 -501 -27 -127
-24 -374 6 -494 77 -314 272 -470 586 -469 185 1 311 44 447 153 40 32 79 65
87 74 7 9 17 14 22 11 5 -3 9 567 9 1355 l0 1361 -2150 0 -2150 0 0 -690z"/>
<path d="M350 1770 l0 -1420 2150 0 2150 0 0 731 0 731 -79 -74 c-90 -85 -195
-145 -311 -178 -108 -31 -317 -39 -430 -16 -106 22 -220 66 -285 111 l-50 35
-7 -28 c-3 -15 -10 -45 -15 -67 l-8 -40 -693 -3 c-562 -2 -694 0 -698 11 -3 8
-17 11 -38 9 -26 -3 -37 1 -44 15 -5 10 -92 236 -192 503 -101 267 -186 489
-190 493 -4 4 -89 -210 -190 -475 -100 -266 -189 -495 -197 -510 -10 -21 -21
-28 -43 -28 -28 0 -30 4 -109 203 -357 903 -495 1248 -516 1283 -44 75 -128
134 -192 134 -10 0 -13 -291 -13 -1420z m2485 -300 c4 -7 -110 -10 -335 -10
-225 0 -339 3 -335 10 4 6 127 10 335 10 208 0 331 -4 335 -10z m-1380 -162
c4 -29 11 -61 17 -70 7 -16 4 -18 -24 -17 -18 0 -27 3 -20 6 6 2 12 13 12 24
0 14 -7 19 -29 19 -28 0 -47 -22 -35 -41 3 -5 -7 -9 -23 -9 -15 0 -23 4 -17 8
6 4 29 35 53 70 23 34 46 62 50 62 5 0 12 -24 16 -52z m235 37 c0 -8 -4 -15
-10 -15 -5 0 -10 5 -10 10 0 14 -37 13 -46 -2 -4 -6 7 -22 27 -38 30 -26 32
-30 21 -54 -10 -22 -18 -26 -52 -26 -28 0 -40 4 -40 14 0 21 17 29 24 11 7
-20 42 -19 50 0 3 9 -6 26 -24 42 -33 29 -37 42 -18 61 18 18 78 16 78 -3z
m200 0 c0 -8 -4 -15 -10 -15 -5 0 -10 5 -10 10 0 14 -37 13 -46 -2 -4 -6 6
-22 25 -37 51 -42 36 -81 -31 -81 -39 0 -44 5 -29 28 7 11 9 11 14 -2 8 -20
43 -21 51 -1 3 9 -6 26 -24 42 -33 29 -37 42 -18 61 18 18 78 16 78 -3z m220
-2 c0 -13 -3 -14 -12 -5 -14 14 -58 16 -58 3 0 -5 -3 -16 -6 -25 -7 -19 26
-22 44 -4 14 14 15 2 2 -27 -5 -11 -9 -14 -9 -7 -1 18 -38 15 -45 -4 -16 -42
15 -62 48 -29 20 20 25 19 19 -5 -5 -17 -14 -20 -60 -20 -43 0 -53 3 -45 13
18 22 32 111 19 119 -7 4 14 8 46 8 47 0 57 -3 57 -17z m200 2 c0 -8 -4 -15
-10 -15 -5 0 -10 5 -10 10 0 14 -37 13 -46 -2 -4 -6 7 -22 27 -38 30 -26 32
-30 21 -54 -10 -22 -18 -26 -52 -26 -28 0 -40 4 -40 14 0 21 17 29 24 11 3 -8
15 -15 26 -15 29 0 26 37 -5 62 -28 21 -31 38 -13 56 18 18 78 16 78 -3z m200
0 c0 -8 -4 -15 -10 -15 -5 0 -10 5 -10 10 0 14 -37 13 -46 -2 -4 -6 7 -22 27
-38 30 -26 32 -30 21 -54 -10 -22 -18 -26 -53 -26 -33 0 -40 3 -35 16 3 9 6
21 7 27 0 7 4 2 9 -10 11 -26 45 -31 54 -8 3 9 -6 26 -24 42 -33 29 -37 42
-18 61 18 18 78 16 78 -3z m164 -30 c4 -25 10 -45 14 -45 4 0 19 20 34 45 20
32 34 45 50 45 14 0 19 -3 11 -8 -14 -9 -36 -100 -29 -119 4 -9 -3 -13 -21
-13 -19 0 -23 3 -15 13 11 14 26 77 18 77 -3 0 -17 -21 -33 -47 -30 -51 -28
-52 -49 32 l-7 30 -9 -40 c-5 -21 -6 -45 -4 -52 4 -9 -3 -13 -20 -13 -23 0
-24 2 -10 15 16 17 32 98 21 114 -4 7 3 11 18 11 22 0 26 -6 31 -45z m326 28
c0 -13 -3 -14 -12 -5 -14 14 -58 16 -58 3 0 -5 -3 -16 -6 -25 -7 -19 26 -22
44 -4 14 14 15 2 2 -27 -5 -11 -9 -14 -9 -7 -1 13 -41 17 -41 5 0 -5 -3 -18
-6 -30 -5 -18 -2 -23 13 -23 10 0 28 7 40 15 20 14 21 13 16 -5 -5 -17 -14
-20 -60 -20 -43 0 -53 3 -46 13 6 6 16 34 22 61 10 40 10 51 -1 57 -8 5 10 9
45 9 47 0 57 -3 57 -17z m171 -28 c13 -24 26 -41 30 -37 14 15 18 71 6 76 -7
2 2 5 18 5 17 0 25 -3 18 -7 -6 -4 -17 -35 -23 -69 -7 -35 -16 -63 -20 -63 -4
0 -15 18 -25 40 -28 62 -42 68 -50 21 -4 -22 -4 -45 0 -51 4 -6 -5 -10 -20
-10 -23 0 -25 2 -12 15 16 15 32 99 22 115 -3 5 2 10 13 10 13 0 27 -16 43
-45z m291 23 c-5 -20 -7 -20 -10 -5 -2 10 -11 17 -20 15 -18 -3 -36 -69 -29
-105 4 -20 0 -23 -27 -23 -21 0 -27 3 -18 9 13 8 31 68 32 104 0 9 -7 17 -15
17 -8 0 -15 -4 -15 -10 0 -5 -4 -10 -10 -10 -5 0 -7 7 -4 15 5 11 22 15 64 15
55 0 58 -1 52 -22z m141 15 c-21 -8 -15 -27 17 -55 21 -19 28 -32 23 -45 -9
-25 -23 -33 -60 -33 -26 0 -33 4 -33 20 0 11 5 20 10 20 6 0 10 -7 10 -15 0
-20 39 -19 47 1 3 9 -5 26 -21 43 -36 37 -34 72 3 70 10 0 12 -2 4 -6z m57 0
c0 -5 -5 -15 -10 -23 -8 -13 -10 -13 -10 2 0 9 -6 19 -12 21 -7 3 -3 6 10 6
12 1 22 -2 22 -6z"/>
<path d="M1412 1309 c-15 -23 -11 -33 10 -27 9 2 12 11 9 26 l-6 22 -13 -21z"/>
<path d="M2570 2820 l0 -333 223 5 c212 4 226 5 273 29 63 31 85 70 92 160 l5
69 46 0 c46 0 46 1 65 48 10 26 32 68 47 95 33 54 34 62 14 110 -23 55 -60 92
-117 118 -51 23 -63 24 -350 27 l-298 4 0 -332z"/>
<path d="M2570 2029 l0 -362 278 6 c210 4 292 9 337 21 66 18 127 56 158 98
l21 28 -46 87 c-26 49 -56 120 -68 160 -20 68 -23 72 -53 75 -32 3 -32 4 -38
68 -14 159 -60 179 -406 180 l-183 0 0 -361z"/>
<path d="M2307 2280 c-20 -54 -217 -632 -217 -638 0 -12 139 7 168 22 59 30
65 59 70 351 2 143 3 271 0 285 -3 22 -5 20 -21 -20z"/>
</g>
</svg>
